<svg width="803" height="803" viewBox="0 0 803 803" fill="none" xmlns="http://www.w3.org/2000/svg">
<rect width="803" height="803" fill="#1E1E1E"/>
<path d="M391.902 144.54C285.881 144.54 186.321 152.57 133.311 163.799C97.9912 171.829 67.4395 195.919 61.0406 232.87C54.6417 271.389 48.1801 329.23 48.1801 401.5C48.1801 473.77 54.579 529.98 62.609 570.13C69.0706 605.449 99.5595 631.171 134.879 639.201C191.152 650.43 287.449 658.46 393.47 658.46C499.491 658.46 595.788 650.43 651.998 639.201C687.381 631.171 717.869 607.081 724.268 570.13C730.73 529.98 738.76 472.202 740.328 399.932C740.328 327.662 732.298 269.821 724.268 229.671C717.869 194.351 687.381 168.63 651.998 160.6C595.788 152.57 497.86 144.54 391.902 144.54ZM391.902 176.66C507.521 176.66 600.619 186.258 645.599 194.288C669.689 200.75 688.949 216.81 692.148 237.701C701.809 289.08 708.208 343.722 708.208 399.932C706.64 468.939 698.61 525.149 692.148 565.299C687.381 595.788 655.261 605.449 645.599 608.712C587.758 619.941 491.398 627.908 395.038 627.908C298.678 627.908 200.75 621.509 144.54 608.712C120.45 602.25 101.191 586.19 97.9912 565.299C85.1306 520.319 80.3001 460.909 80.3001 401.5C80.3001 327.599 86.7617 273.02 93.1606 239.332C97.9912 208.78 131.68 199.119 139.71 195.919C192.72 184.69 290.711 176.66 391.902 176.66ZM305.14 273.02V529.98L529.98 401.5L305.14 273.02ZM337.26 327.662L465.74 401.5L337.26 475.338V327.662Z" fill="black"/>
</svg>
