G04 Layer: TopLayer*
G04 EasyEDA v6.5.34, 2023-09-01 08:25:12*
G04 cc2bbb75409f4265bb42bba671d4d825,5105ad0bdac541d6bd466d525955c20a,10*
G04 Gerber Generator version 0.2*
G04 Scale: 100 percent, Rotated: No, Reflected: No *
G04 Dimensions in millimeters *
G04 leading zeros omitted , absolute positions ,4 integer and 5 decimal *
%FSLAX45Y45*%
%MOMM*%

%AMMACRO1*21,1,$1,$2,0,0,$3*%
%ADD10C,0.2540*%
%ADD11C,0.2030*%
%ADD12C,0.3000*%
%ADD13R,0.7500X0.3000*%
%ADD14R,0.9000X0.8000*%
%ADD15MACRO1,1X1.3995X0.0000*%
%ADD16R,1.0000X1.3995*%
%ADD17MACRO1,0.864X0.8065X0.0000*%
%ADD18R,0.8640X0.8065*%
%ADD19R,0.2800X0.5000*%
%ADD20R,0.4500X0.3000*%
%ADD21R,0.3000X0.3000*%
%ADD22C,0.6100*%
%ADD23C,0.6096*%
%ADD24C,0.0117*%

%LPD*%
G36*
X3060801Y-4361180D02*
G01*
X3049473Y-4361688D01*
X3043936Y-4362297D01*
X3033064Y-4364278D01*
X3022549Y-4367225D01*
X3012440Y-4370984D01*
X3002788Y-4375607D01*
X2993593Y-4381042D01*
X2984957Y-4387189D01*
X2980791Y-4390542D01*
X2973019Y-4397756D01*
X2965856Y-4405630D01*
X2959404Y-4414062D01*
X2953613Y-4423054D01*
X2948635Y-4432554D01*
X2944469Y-4442510D01*
X2941116Y-4452924D01*
X2939796Y-4458258D01*
X2937865Y-4469231D01*
X2937205Y-4474819D01*
X2936697Y-4486198D01*
X2936849Y-4492091D01*
X2937256Y-4497882D01*
X2937916Y-4503623D01*
X2938830Y-4509312D01*
X2941370Y-4520336D01*
X2944926Y-4530953D01*
X2949295Y-4541164D01*
X2954578Y-4550867D01*
X2960624Y-4560011D01*
X2967482Y-4568545D01*
X2971139Y-4572609D01*
X2979013Y-4580178D01*
X2987497Y-4587036D01*
X2996590Y-4593132D01*
X3001314Y-4595926D01*
X3011220Y-4600803D01*
X3021533Y-4604766D01*
X3025495Y-4604816D01*
X3028086Y-4603496D01*
X3029508Y-4601311D01*
X3029966Y-4598771D01*
X3029762Y-4575606D01*
X3018078Y-4577080D01*
X3008680Y-4576419D01*
X3001416Y-4574184D01*
X2995980Y-4570933D01*
X2992170Y-4567377D01*
X2989732Y-4564075D01*
X2983585Y-4551730D01*
X2979115Y-4546142D01*
X2975660Y-4543298D01*
X2974289Y-4542485D01*
X2969666Y-4538065D01*
X2970479Y-4535779D01*
X2973425Y-4534966D01*
X2975152Y-4534814D01*
X2983382Y-4537202D01*
X2989376Y-4541570D01*
X2993034Y-4545787D01*
X2998673Y-4553712D01*
X3003550Y-4557776D01*
X3008630Y-4560163D01*
X3013760Y-4561230D01*
X3018739Y-4561230D01*
X3023260Y-4560468D01*
X3027222Y-4559300D01*
X3030372Y-4558030D01*
X3031540Y-4552442D01*
X3033369Y-4547768D01*
X3035655Y-4544060D01*
X3038195Y-4541266D01*
X3027883Y-4539742D01*
X3022752Y-4538573D01*
X3017774Y-4537151D01*
X3012897Y-4535322D01*
X3008223Y-4533138D01*
X3003804Y-4530445D01*
X2999638Y-4527346D01*
X2995777Y-4523638D01*
X2992323Y-4519422D01*
X2989275Y-4514545D01*
X2986684Y-4509058D01*
X2984550Y-4502861D01*
X2983026Y-4495901D01*
X2982010Y-4488129D01*
X2981706Y-4479544D01*
X2982620Y-4469790D01*
X2985160Y-4460951D01*
X2989173Y-4453026D01*
X2994456Y-4446016D01*
X2993136Y-4441952D01*
X2992069Y-4434738D01*
X2992424Y-4424883D01*
X2995676Y-4412945D01*
X2997657Y-4412640D01*
X3000248Y-4412742D01*
X3003854Y-4413300D01*
X3008579Y-4414621D01*
X3014472Y-4416958D01*
X3021533Y-4420565D01*
X3029762Y-4425746D01*
X3034842Y-4424476D01*
X3045155Y-4422648D01*
X3055569Y-4421733D01*
X3060801Y-4421632D01*
X3068675Y-4421886D01*
X3076549Y-4422698D01*
X3084271Y-4423968D01*
X3091840Y-4425746D01*
X3100070Y-4420565D01*
X3107131Y-4416958D01*
X3112973Y-4414621D01*
X3117748Y-4413300D01*
X3121355Y-4412742D01*
X3123895Y-4412640D01*
X3125927Y-4412945D01*
X3129127Y-4424883D01*
X3129534Y-4434738D01*
X3128416Y-4441952D01*
X3127146Y-4446016D01*
X3132531Y-4453026D01*
X3136544Y-4460951D01*
X3139033Y-4469790D01*
X3139897Y-4479544D01*
X3139541Y-4488129D01*
X3138576Y-4495901D01*
X3137052Y-4502810D01*
X3134918Y-4509008D01*
X3132328Y-4514545D01*
X3129280Y-4519371D01*
X3125774Y-4523587D01*
X3121964Y-4527245D01*
X3117748Y-4530394D01*
X3113328Y-4533036D01*
X3108655Y-4535220D01*
X3103727Y-4537049D01*
X3098749Y-4538522D01*
X3093567Y-4539691D01*
X3083204Y-4541266D01*
X3086404Y-4544872D01*
X3089097Y-4549902D01*
X3090926Y-4556404D01*
X3091637Y-4564430D01*
X3091434Y-4598771D01*
X3091840Y-4601311D01*
X3093313Y-4603496D01*
X3095904Y-4604816D01*
X3099816Y-4604766D01*
X3110179Y-4600803D01*
X3120034Y-4595926D01*
X3129432Y-4590186D01*
X3138220Y-4583684D01*
X3146399Y-4576470D01*
X3150260Y-4572609D01*
X3157423Y-4564380D01*
X3163874Y-4555490D01*
X3169564Y-4546092D01*
X3174390Y-4536135D01*
X3178352Y-4525721D01*
X3181400Y-4514850D01*
X3182569Y-4509312D01*
X3183483Y-4503623D01*
X3184144Y-4497882D01*
X3184550Y-4492091D01*
X3184702Y-4486198D01*
X3184194Y-4474819D01*
X3183585Y-4469231D01*
X3181654Y-4458258D01*
X3180334Y-4452924D01*
X3177032Y-4442510D01*
X3172866Y-4432554D01*
X3167837Y-4423054D01*
X3165094Y-4418482D01*
X3158947Y-4409744D01*
X3152140Y-4401616D01*
X3144672Y-4394098D01*
X3136544Y-4387189D01*
X3127908Y-4381042D01*
X3118713Y-4375607D01*
X3109061Y-4370984D01*
X3098952Y-4367225D01*
X3088436Y-4364278D01*
X3077616Y-4362297D01*
X3072079Y-4361688D01*
G37*
G36*
X3072536Y-3947210D02*
G01*
X3044952Y-3947718D01*
X3019501Y-3949141D01*
X2997606Y-3951325D01*
X2988411Y-3952646D01*
X2980588Y-3954068D01*
X2976016Y-3955389D01*
X2971596Y-3957269D01*
X2967532Y-3959656D01*
X2963926Y-3962501D01*
X2960725Y-3965854D01*
X2958134Y-3969664D01*
X2956153Y-3973931D01*
X2954934Y-3978656D01*
X2953258Y-3990187D01*
X2951784Y-4004106D01*
X2950718Y-4020312D01*
X2950311Y-4038600D01*
X2961741Y-4038600D01*
X2962148Y-4020210D01*
X2963214Y-4004411D01*
X2964637Y-3991305D01*
X2966313Y-3980942D01*
X2969260Y-3974084D01*
X2974187Y-3969562D01*
X2979318Y-3966870D01*
X2982874Y-3965498D01*
X2990646Y-3964076D01*
X2999790Y-3962755D01*
X3021279Y-3960571D01*
X3046018Y-3959148D01*
X3072536Y-3958640D01*
X3087573Y-3958793D01*
X3101746Y-3959199D01*
X3114954Y-3959860D01*
X3138068Y-3961688D01*
X3156000Y-3963822D01*
X3162757Y-3964940D01*
X3168802Y-3967276D01*
X3173831Y-3970731D01*
X3177489Y-3975150D01*
X3179318Y-3980332D01*
X3181654Y-3994251D01*
X3183483Y-4008577D01*
X3184652Y-4023156D01*
X3185058Y-4038041D01*
X3184245Y-4055567D01*
X3182823Y-4071315D01*
X3181096Y-4085082D01*
X3179318Y-4096867D01*
X3176524Y-4103674D01*
X3171698Y-4108196D01*
X3166567Y-4110888D01*
X3162757Y-4112260D01*
X3154426Y-4113733D01*
X3144977Y-4115054D01*
X3134563Y-4116222D01*
X3111500Y-4118000D01*
X3099155Y-4118610D01*
X3073654Y-4119118D01*
X3054451Y-4118864D01*
X3041853Y-4118457D01*
X3018078Y-4116933D01*
X3007207Y-4115866D01*
X2997301Y-4114596D01*
X2988513Y-4113123D01*
X2984601Y-4112260D01*
X2978556Y-4109923D01*
X2973527Y-4106468D01*
X2969920Y-4102049D01*
X2968040Y-4096867D01*
X2966466Y-4090619D01*
X2965145Y-4083964D01*
X2964027Y-4076954D01*
X2963164Y-4069638D01*
X2962097Y-4054348D01*
X2961741Y-4038600D01*
X2950311Y-4038600D01*
X2950718Y-4056786D01*
X2951835Y-4072890D01*
X2953461Y-4086809D01*
X2955442Y-4098544D01*
X2956712Y-4103115D01*
X2958693Y-4107281D01*
X2961284Y-4111091D01*
X2964484Y-4114495D01*
X2968142Y-4117390D01*
X2972155Y-4119829D01*
X2976524Y-4121759D01*
X2981147Y-4123131D01*
X2989326Y-4124553D01*
X2998673Y-4125874D01*
X3020517Y-4128058D01*
X3045663Y-4129481D01*
X3073095Y-4129989D01*
X3100578Y-4129481D01*
X3125724Y-4128058D01*
X3147568Y-4125874D01*
X3156915Y-4124553D01*
X3165043Y-4123131D01*
X3169666Y-4121810D01*
X3174034Y-4119930D01*
X3178098Y-4117543D01*
X3181756Y-4114698D01*
X3184956Y-4111345D01*
X3187547Y-4107535D01*
X3189528Y-4103268D01*
X3190748Y-4098544D01*
X3192526Y-4086707D01*
X3194253Y-4072585D01*
X3195675Y-4056329D01*
X3196488Y-4038041D01*
X3195980Y-4019753D01*
X3194659Y-4003497D01*
X3192830Y-3989374D01*
X3190748Y-3977487D01*
X3189528Y-3972966D01*
X3187547Y-3968750D01*
X3184956Y-3964940D01*
X3181756Y-3961587D01*
X3178098Y-3958640D01*
X3174034Y-3956202D01*
X3169666Y-3954272D01*
X3165043Y-3952951D01*
X3147466Y-3950817D01*
X3125419Y-3948988D01*
X3100120Y-3947718D01*
G37*
G36*
X3041700Y-3992930D02*
G01*
X3041700Y-4012336D01*
X3053130Y-4012336D01*
X3098800Y-4038600D01*
X3053130Y-4064863D01*
X3053130Y-4012336D01*
X3041700Y-4012336D01*
X3041700Y-4084269D01*
X3121660Y-4038600D01*
G37*
G36*
X3149600Y-3441700D02*
G01*
X3143504Y-3442004D01*
X3137458Y-3442868D01*
X3131515Y-3444290D01*
X3125724Y-3446322D01*
X3120085Y-3448964D01*
X3114649Y-3452164D01*
X3109518Y-3455924D01*
X3104692Y-3460292D01*
X3045561Y-3519424D01*
X3053029Y-3518306D01*
X3060649Y-3517950D01*
X3064916Y-3518052D01*
X3113684Y-3469284D01*
X3118866Y-3464712D01*
X3124504Y-3461004D01*
X3130499Y-3458108D01*
X3136696Y-3456025D01*
X3143097Y-3454806D01*
X3149600Y-3454400D01*
X3156102Y-3454806D01*
X3162503Y-3456025D01*
X3168700Y-3458108D01*
X3174695Y-3461004D01*
X3180334Y-3464712D01*
X3185515Y-3469284D01*
X3190087Y-3474465D01*
X3193796Y-3480104D01*
X3196691Y-3486099D01*
X3198774Y-3492296D01*
X3199993Y-3498697D01*
X3200400Y-3505200D01*
X3199993Y-3511702D01*
X3198774Y-3518103D01*
X3196691Y-3524300D01*
X3193796Y-3530295D01*
X3190087Y-3535934D01*
X3185515Y-3541115D01*
X3122015Y-3604564D01*
X3116834Y-3609136D01*
X3111195Y-3612845D01*
X3105251Y-3615740D01*
X3099003Y-3617823D01*
X3092602Y-3619042D01*
X3086150Y-3619449D01*
X3079648Y-3619042D01*
X3073247Y-3617823D01*
X3066999Y-3615740D01*
X3061055Y-3612845D01*
X3055416Y-3609136D01*
X3050235Y-3604564D01*
X3045764Y-3599535D01*
X3042158Y-3594100D01*
X3039262Y-3588308D01*
X3037179Y-3582263D01*
X3027172Y-3592271D01*
X3029813Y-3597960D01*
X3033014Y-3603447D01*
X3036824Y-3608679D01*
X3041243Y-3613556D01*
X3046069Y-3617925D01*
X3051200Y-3621684D01*
X3056585Y-3624884D01*
X3062224Y-3627526D01*
X3068066Y-3629558D01*
X3074009Y-3630980D01*
X3080054Y-3631844D01*
X3086150Y-3632149D01*
X3092196Y-3631844D01*
X3098241Y-3630980D01*
X3104184Y-3629558D01*
X3110026Y-3627526D01*
X3115665Y-3624884D01*
X3121050Y-3621684D01*
X3126181Y-3617925D01*
X3131007Y-3613556D01*
X3194507Y-3550107D01*
X3198876Y-3545281D01*
X3202635Y-3540150D01*
X3205835Y-3534714D01*
X3208426Y-3529076D01*
X3210458Y-3523284D01*
X3211931Y-3517341D01*
X3212795Y-3511296D01*
X3213100Y-3505200D01*
X3212795Y-3499104D01*
X3211931Y-3493058D01*
X3210458Y-3487115D01*
X3208426Y-3481273D01*
X3205835Y-3475634D01*
X3202635Y-3470249D01*
X3198876Y-3465118D01*
X3194507Y-3460292D01*
X3189681Y-3455924D01*
X3184550Y-3452164D01*
X3179165Y-3448964D01*
X3173526Y-3446322D01*
X3167684Y-3444290D01*
X3161741Y-3442868D01*
X3155696Y-3442004D01*
G37*
G36*
X3060649Y-3530650D02*
G01*
X3054604Y-3530904D01*
X3048558Y-3531819D01*
X3042564Y-3533241D01*
X3036773Y-3535273D01*
X3031134Y-3537915D01*
X3025698Y-3541115D01*
X3020568Y-3544874D01*
X3015742Y-3549243D01*
X2952292Y-3612692D01*
X2947924Y-3617518D01*
X2944164Y-3622649D01*
X2940964Y-3628085D01*
X2938373Y-3633724D01*
X2936290Y-3639515D01*
X2934868Y-3645458D01*
X2934004Y-3651504D01*
X2933700Y-3657600D01*
X2934004Y-3663696D01*
X2934868Y-3669741D01*
X2936290Y-3675684D01*
X2938373Y-3681526D01*
X2940964Y-3687114D01*
X2944164Y-3692550D01*
X2947924Y-3697681D01*
X2952292Y-3702507D01*
X2957118Y-3706876D01*
X2962249Y-3710635D01*
X2967634Y-3713835D01*
X2973273Y-3716426D01*
X2979115Y-3718458D01*
X2985058Y-3719931D01*
X2991104Y-3720795D01*
X2997200Y-3721100D01*
X3003296Y-3720795D01*
X3009341Y-3719931D01*
X3015284Y-3718458D01*
X3021076Y-3716426D01*
X3026714Y-3713835D01*
X3032150Y-3710635D01*
X3037281Y-3706876D01*
X3042056Y-3702507D01*
X3101238Y-3643376D01*
X3093770Y-3644493D01*
X3086150Y-3644849D01*
X3081883Y-3644747D01*
X3033115Y-3693515D01*
X3027883Y-3698087D01*
X3022295Y-3701796D01*
X3016300Y-3704691D01*
X3010103Y-3706723D01*
X3003702Y-3707993D01*
X2997200Y-3708400D01*
X2990697Y-3707993D01*
X2984296Y-3706774D01*
X2978099Y-3704691D01*
X2972104Y-3701796D01*
X2966466Y-3698087D01*
X2961284Y-3693515D01*
X2956712Y-3688334D01*
X2953004Y-3682695D01*
X2950108Y-3676700D01*
X2948025Y-3670503D01*
X2946806Y-3664102D01*
X2946400Y-3657600D01*
X2946806Y-3651097D01*
X2948025Y-3644696D01*
X2950108Y-3638499D01*
X2953004Y-3632504D01*
X2956712Y-3626865D01*
X2961284Y-3621684D01*
X3024733Y-3558184D01*
X3029966Y-3553663D01*
X3035554Y-3549954D01*
X3041548Y-3547059D01*
X3047796Y-3544976D01*
X3054197Y-3543757D01*
X3060649Y-3543300D01*
X3067151Y-3543757D01*
X3073552Y-3544976D01*
X3079800Y-3547059D01*
X3085744Y-3549954D01*
X3091383Y-3553663D01*
X3096564Y-3558184D01*
X3100984Y-3563213D01*
X3104642Y-3568649D01*
X3107537Y-3574389D01*
X3109620Y-3580434D01*
X3119628Y-3570478D01*
X3116986Y-3564737D01*
X3113786Y-3559301D01*
X3109976Y-3554120D01*
X3105556Y-3549243D01*
X3100730Y-3544874D01*
X3095599Y-3541115D01*
X3090214Y-3537915D01*
X3084576Y-3535273D01*
X3078734Y-3533241D01*
X3072790Y-3531819D01*
X3066745Y-3530904D01*
G37*
D10*
X4991100Y-2490063D02*
G01*
X4379823Y-2490063D01*
X2599608Y-711200D01*
X2565400Y-711200D01*
X2015997Y-711200D02*
G01*
X2563875Y-711200D01*
X2565372Y-711200D01*
D11*
X6151397Y-2592400D02*
G01*
X6111692Y-2552694D01*
X5774992Y-2552694D01*
D10*
X5715000Y-2434742D02*
G01*
X5707684Y-2427427D01*
X5346700Y-2427427D01*
X5715000Y-2487701D02*
G01*
X5715000Y-2434742D01*
X5346700Y-2495397D02*
G01*
X5346700Y-2427427D01*
X2225929Y-711200D02*
G01*
X3630470Y-711200D01*
X5346700Y-2427429D01*
X5764987Y-2617698D02*
G01*
X5715000Y-2617698D01*
X5346700Y-2635402D02*
G01*
X5419674Y-2635402D01*
X5715000Y-2670657D02*
G01*
X5713095Y-2672562D01*
X5456834Y-2672562D01*
X5419674Y-2635402D01*
X5715000Y-2617698D02*
G01*
X5715000Y-2670657D01*
X4991100Y-2640736D02*
G01*
X5268391Y-2640736D01*
X5273725Y-2635402D01*
X5346700Y-2635402D02*
G01*
X5273725Y-2635402D01*
X6532397Y-2465400D02*
G01*
X6491401Y-2465400D01*
X6474891Y-2448890D01*
X6474891Y-398906D01*
X6474993Y-396443D01*
X6475298Y-393979D01*
X6475806Y-391566D01*
X6476491Y-389204D01*
X6477406Y-386918D01*
X6478473Y-384682D01*
X6479743Y-382574D01*
X6481165Y-380568D01*
X6482740Y-378663D01*
X6484493Y-376910D01*
X6486372Y-375310D01*
X6488353Y-373862D01*
X6490487Y-372592D01*
X6492697Y-371500D01*
X6494983Y-370586D01*
X6497345Y-369874D01*
X6499758Y-369341D01*
X6502196Y-369036D01*
X6504660Y-368909D01*
X6504914Y-368909D01*
X5764987Y-2487701D02*
G01*
X5764987Y-2434742D01*
X5764987Y-2434742D02*
G01*
X6114592Y-2434742D01*
D12*
X8494902Y-4658893D02*
G01*
X8494902Y-398906D01*
X8554897Y-4658893D02*
G01*
X8554897Y-398906D01*
X8614892Y-4658893D02*
G01*
X8614892Y-398906D01*
X8674887Y-4658893D02*
G01*
X8674887Y-398906D01*
X8734907Y-4658893D02*
G01*
X8734907Y-398906D01*
X6504914Y-4688890D02*
G01*
X8464905Y-4688890D01*
X6504914Y-4748885D02*
G01*
X8464905Y-4748885D01*
X6504914Y-4808905D02*
G01*
X8464905Y-4808905D01*
X6504914Y-4868900D02*
G01*
X8464905Y-4868900D01*
X6504914Y-4928895D02*
G01*
X8464905Y-4928895D01*
X6504914Y-368909D02*
G01*
X8464905Y-368909D01*
X6504914Y-308914D02*
G01*
X8464905Y-308914D01*
X6504914Y-248894D02*
G01*
X8464905Y-248894D01*
X6504914Y-188899D02*
G01*
X8464905Y-188899D01*
X6504914Y-128904D02*
G01*
X8464905Y-128904D01*
X6474891Y-4658893D02*
G01*
X6474891Y-2528900D01*
X6414897Y-2468905D01*
X6414897Y-398906D01*
X6354902Y-4658893D02*
G01*
X6354902Y-2568905D01*
X6294907Y-2508910D01*
X6294907Y-398906D01*
X6414897Y-4658893D02*
G01*
X6414897Y-2548889D01*
X6354902Y-2488895D01*
X6354902Y-398906D01*
X6294907Y-4658893D02*
G01*
X6294907Y-2588895D01*
X6234912Y-2528900D01*
X6234912Y-398906D01*
X6474891Y-398906D02*
G01*
X6474891Y-2448890D01*
X6491401Y-2465400D01*
X6532397Y-2465400D01*
X6138697Y-2592400D02*
G01*
X6151397Y-2592400D01*
X6218402Y-2592400D01*
X6234912Y-2608910D01*
X6234912Y-4658893D01*
D13*
G01*
X6151397Y-2592400D03*
D14*
G01*
X5346700Y-2635402D03*
G01*
X5346700Y-2495397D03*
D15*
G01*
X2213229Y-698500D03*
D16*
G01*
X2003170Y-698500D03*
D17*
G01*
X4991100Y-2640724D03*
D18*
G01*
X4991100Y-2490063D03*
D19*
G01*
X5764987Y-2487701D03*
G01*
X5715000Y-2487701D03*
G01*
X5665012Y-2487701D03*
D20*
G01*
X5655005Y-2552700D03*
D19*
G01*
X5664987Y-2617698D03*
G01*
X5715000Y-2617698D03*
G01*
X5764987Y-2617698D03*
D20*
G01*
X5774994Y-2552700D03*
D21*
G01*
X5715000Y-2552700D03*
D12*
G75*
G01*
X6474892Y-398907D02*
G02*
X6504915Y-368910I29997J0D01*
G75*
G01*
X6414897Y-398907D02*
G02*
X6504915Y-308915I89992J0D01*
G75*
G01*
X6354902Y-398907D02*
G02*
X6504915Y-248895I149987J25D01*
G75*
G01*
X6294907Y-398907D02*
G02*
X6504915Y-188900I210008J0D01*
G75*
G01*
X6234913Y-398907D02*
G02*
X6504915Y-128905I270002J0D01*
G75*
G01*
X6474892Y-4658893D02*
G03*
X6504915Y-4688891I29997J0D01*
G75*
G01*
X6414897Y-4658893D02*
G03*
X6504915Y-4748886I89992J0D01*
G75*
G01*
X6354902Y-4658893D02*
G03*
X6504915Y-4808906I149987J-26D01*
G75*
G01*
X6294907Y-4658893D02*
G03*
X6504915Y-4868901I210008J0D01*
G75*
G01*
X6234913Y-4658893D02*
G03*
X6504915Y-4928895I270002J0D01*
G75*
G01*
X8494903Y-4658893D02*
G02*
X8464906Y-4688891I-29997J0D01*
G75*
G01*
X8554898Y-4658893D02*
G02*
X8464906Y-4748886I-89992J0D01*
G75*
G01*
X8614893Y-4658893D02*
G02*
X8464906Y-4808906I-149987J-26D01*
G75*
G01*
X8674887Y-4658893D02*
G02*
X8464906Y-4868901I-210007J0D01*
G75*
G01*
X8734908Y-4658893D02*
G02*
X8464906Y-4928895I-270002J0D01*
G75*
G01*
X8494903Y-398907D02*
G03*
X8464906Y-368910I-29997J0D01*
G75*
G01*
X8554898Y-398907D02*
G03*
X8464906Y-308915I-89992J0D01*
G75*
G01*
X8614893Y-398907D02*
G03*
X8464906Y-248895I-149987J25D01*
G75*
G01*
X8674887Y-398907D02*
G03*
X8464906Y-188900I-210007J0D01*
G75*
G01*
X8734908Y-398907D02*
G03*
X8464906Y-128905I-270002J0D01*
D22*
G01*
X6532397Y-2465400D03*
D23*
G01*
X6114592Y-2434742D03*
M02*
